Coordinates
version=1
nRows=8
nColumns=36
inDegrees=yes

Units are S.I. units (second, meters, Newtons, ...)
If the header above contains a line with 'inDegrees', this indicates whether rotational values are in degrees (yes) or radians (no).

endheader
time	pelvis_tilt	pelvis_list	pelvis_rotation	pelvis_tx	pelvis_ty	pelvis_tz	hip_flexion_r	hip_adduction_r	hip_rotation_r	knee_angle_r	knee_angle_r_beta	ankle_angle_r	subtalar_angle_r	mtp_angle_r	hip_flexion_l	hip_adduction_l	hip_rotation_l	knee_angle_l	knee_angle_l_beta	ankle_angle_l	subtalar_angle_l	mtp_angle_l	lumbar_extension	lumbar_bending	lumbar_rotation	arm_flex_r	arm_add_r	arm_rot_r	elbow_flex_r	pro_sup_r	arm_flex_l	arm_add_l	arm_rot_l	elbow_flex_l	pro_sup_l
      1.15833330	    -10.10716408	     -0.71030657	     -1.36188283	     -0.64055626	      1.13721083	     -0.07290455	     13.86429201	     -6.48505967	     -9.57963265	     55.86497545	      0.97502776	     18.66195826	     -2.89158814	     -7.49999987	     15.35344156	     -6.83222839	     -5.83730640	     58.73241814	      1.02507407	     20.84027816	      0.57351161	     -7.49999987	    -17.85600642	      1.55030122	      3.01414371	     26.62234628	    -26.35476062	      3.90853290	    100.87641787	     88.65422228	     14.14360401	    -19.87152563	      8.58454181	    127.81469466	     82.66083406
      1.16250000	    -10.02628128	     -0.77212861	     -1.40185459	     -0.63432890	      1.13843677	     -0.07212029	     12.86711586	     -6.34325258	     -9.70858651	     54.52682809	      0.95167268	     17.77221670	     -1.80271556	     -7.49999987	     14.64151163	     -6.88588874	     -5.73142104	     57.86232078	      1.00988801	     19.64870755	      0.81464622	     -7.49999987	    -17.30309687	      1.66663248	      2.94425348	     26.91969475	    -26.48692188	      4.20227289	    101.95799406	     87.66779128	     13.45845519	    -20.73125541	      8.22803517	    129.71667850	     81.50507590
      1.16666670	     -9.85644319	     -0.86296476	     -1.25680581	     -0.62472631	      1.14387297	     -0.07184309	     11.68386865	     -6.17188988	     -9.87071891	     53.35172358	      0.93116324	     15.50998855	     -0.39163144	     -7.49999987	     13.45396732	     -6.89311032	     -5.64216088	     56.50125749	      0.98613297	     18.32542453	      0.91662103	     -7.49999987	    -16.58420901	      1.85219821	      2.87029002	     26.72426350	    -26.78622537	      4.32634787	    102.89200950	     87.88684543	     12.86073189	    -21.19543599	      7.20497633	    130.48091598	     81.75173521
      1.17083330	     -9.69115709	     -0.85885443	     -1.07703078	     -0.61530211	      1.15017115	     -0.07319788	     10.12544782	     -6.18819145	    -10.31479834	     51.36466513	      0.89648253	     13.51611596	     -0.47067101	     -7.49999987	     12.16363555	     -6.79159870	     -5.89651937	     54.83367267	      0.95702813	     16.76298254	      0.88848142	     -7.49999987	    -15.75807290	      1.99368970	      2.87996228	     26.49648189	    -26.97316524	      4.47757316	    103.68253816	     88.05600951	     12.17098093	    -21.84081816	      6.73115300	    131.54696028	     81.95847866
      1.17500000	     -9.58249483	     -0.84857913	     -0.93374523	     -0.60803432	      1.15714767	     -0.07153130	      8.77421471	     -6.06870491	    -10.76403469	     49.23745981	      0.85935579	     11.49685627	     -0.52366888	     -7.49999987	     11.05082027	     -6.82819579	     -6.19254092	     53.07109948	      0.92626542	     14.60814629	      0.48839150	     -7.49999987	    -14.89639453	      2.03670489	      2.97279520	     26.17681247	    -27.05089006	      4.65502918	    104.30029365	     88.18032380	     11.38743041	    -22.39170199	      6.36164118	    132.21486669	     82.06256297
      1.17916670	     -9.38633935	     -0.95674992	     -0.89339035	     -0.59785579	      1.16063588	     -0.07082973	      7.46767821	     -5.93134815	    -11.00132970	     47.77625603	      0.83385297	      8.76089184	     -0.24025306	     -7.49999987	      9.71492824	     -6.95428205	     -6.31741746	     51.53021403	      0.89937190	     12.62703164	      0.48904737	     -7.49999987	    -14.16879498	      2.21297655	      2.92014268	     25.75679675	    -27.14319371	      4.98521764	    105.24528908	     88.30003686	     10.43245076	    -22.96648528	      5.70525833	    133.35781714	     82.14538423
      1.18333330	     -9.64367766	     -1.03942911	     -1.04647032	     -0.58843119	      1.16836445	     -0.07189873	      6.51675553	     -5.85282655	    -11.42706156	     45.69166544	      0.79747000	      6.43725423	      0.75510902	     -7.49999987	      8.72897227	     -6.92286925	     -6.64339107	     49.62318089	      0.86608789	     10.75834414	      1.26667386	     -7.49999987	    -12.77822633	      2.37595290	      3.10898579	     24.97761596	    -27.27151543	      5.26028477	    105.67711687	     88.35313094	      9.28204183	    -23.38119530	      5.54540374	    133.88653573	     82.17070229
      1.18750000	     -9.31111955	     -1.16388696	     -0.91528408	     -0.57929810	      1.17126077	     -0.07188631	      4.80343481	     -5.52820944	    -11.75026489	     43.34086228	      0.75644075	      4.21613255	      0.87507119	     -7.49999987	      7.34500467	     -6.98536037	     -6.81146780	     48.02358931	      0.83816975	      7.83607102	      0.89225037	     -7.49999987	    -12.28930878	      2.60902793	      2.80940269	     24.52183177	    -27.28503138	      5.32703648	    106.78867075	     88.40076784	      8.08255292	    -23.93054942	      4.81047581	    134.86318324	     82.16268741
